# xmcd
#
# Track frame offsets: 
#        150
#        27818
#        47821
#        76502
#        92673
#        110921
#        136272
#        160978
#        179331
#        194174
#
# Disc length: 2796 seconds
#
# Revision: 0
# Processed by: cddbd v1.5.2PL0 Copyright (c) Steve Scherf et al.
# Submitted via: ExactAudioCopyFreeDBPlugin 1.0
#
DISCID=810aea0a
DTITLE=Whisky De Segunda - From Campo Grande To Chicago
DYEAR=2014
DGENRE=Blues
TTITLE0=All Your Love
TTITLE1=Shake Me
TTITLE2=I'm Living Because Of You
TTITLE3=Boom Boom
TTITLE4=Fell So Good
TTITLE5=Got My Mojo Working
TTITLE6=I Fell So Bad
TTITLE7=Living In My Neighborhood
TTITLE8=So Close
TTITLE9=From Campo Grande To Chicago
EXTD=
EXTT0=
EXTT1=
EXTT2=
EXTT3=
EXTT4=
EXTT5=
EXTT6=
EXTT7=
EXTT8=
EXTT9=
PLAYORDER=
